<svg xmlns="http://www.w3.org/2000/svg" width="256" height="256"><path fill-opacity=".016" d="M0 128.004v128.004l128.25-.254 128.25-.254.254-127.75L257.008 0H0v128.004m.485.496c0 70.4.119 99.053.265 63.672.146-35.38.146-92.98 0-128C.604 29.153.485 58.1.485 128.5" fill="#111" fill-rule="evenodd"/><path fill-opacity=".099" d="M45.269 18.096c-5.092 2.52-10.851 10.63-14.64 20.614C19.441 68.193-1.396 193.773.238 221.865 1.333 240.678 7.7 244.566 20.5 234.24c6.194-4.997 8.611-7.729 28.24-31.917 41.212-50.787 75.464-70.409 100.325-57.475 15.896 8.27 31.039 22.578 63.18 59.695 24.501 28.294 30.13 33.06 36.616 31.001 2.373-.753 6.089-7.945 6.257-12.11l.119-2.934.763 3c1.181 4.642 1.186-14.2.005-22.231a4036.732 4036.732 0 01-3.084-21.769c-7.438-53.407-23.416-106.361-37.938-125.738-7.832-10.449-15.026-11.651-26.319-4.396-10.581 6.798-27.189 27.203-41.134 50.539-1.118 1.87.391.929 7.97-4.973 17.059-13.285 34.588-18.151 47.286-13.128 12.433 4.919 22.897 19.245 30.089 41.196 3.868 11.806 5.125 18.404 5.123 26.886-.001 7.945-2.038 12.585-6.998 15.946-3.09 2.093-4.288 2.308-10.224 1.83-8.203-.66-20.118-5.97-29.757-13.26C174.651 142.023 104.8 70.008 71.112 30.781c-6.069-7.067-9.732-10.409-13.425-12.25-6.156-3.067-7.038-3.098-12.418-.435M.374 216.5c.002 6.05.167 8.396.366 5.213.199-3.182.197-8.132-.004-11-.201-2.867-.364-.263-.362 5.787" fill="#111" fill-rule="evenodd"/><path fill-opacity=".283" d="M44.366 18.859C38.356 22.638 33.048 31.748 28.552 46 20.105 72.776 4.798 161.79 1.026 206.067c-2.103 24.687 1.932 36.082 11.643 32.877 4.613-1.522 16.486-12.827 25.597-24.371 36.056-45.687 61.309-67.162 86.126-73.242 21.519-5.272 40.33 7.97 85.852 60.437 21.059 24.271 28.534 31.636 33.331 32.84 4.47 1.122 6.86.022 8.925-4.108 1.784-3.567 1.995-5.947 1.957-22-.03-12.275-.61-21.498-1.823-29-12.477-77.144-32.153-130.922-49.047-134.058-11.093-2.058-26.266 10.826-44.819 38.058-4.122 6.05-8.065 12.093-8.762 13.429l-1.268 2.428 2.881-2.207c12.341-9.456 21.419-14.432 30.63-16.792 22.372-5.732 39.862 8.88 51.192 42.769 8.888 26.584 6.467 42.378-6.941 45.272-6.759 1.458-20.276-3.161-31.977-10.927-14.387-9.55-84.115-80.629-121.377-123.73-5.116-5.917-10.86-11.948-12.766-13.401-4.658-3.553-11.686-4.203-16.014-1.482" fill="#111" fill-rule="evenodd"/><path fill-opacity=".217" d="M45.287 18.63c-5.832 2.875-12.074 13.394-16.664 28.082C23.53 63.008 14.15 111.287 8.068 152.5c-9.585 64.954-9.427 85.316.667 86.309 1.726.169 4.462-.377 6.08-1.214 4.813-2.488 13.64-11.128 21.371-20.917 41.703-52.8 70.833-76.157 95.774-76.794 2.497-.064 3.753-.322 2.79-.573-2.138-.559-2.327-2.311-.25-2.311 2.362 0 2.2-28.569-.176-31.195-1.384-1.529-1.446-2.066-.354-3.079.934-.865 1.128-.878.66-.045-.364.649-.28 1.417.187 1.706.467.289.85-.112.85-.891 0-.778-1.837-3.121-4.082-5.206l-4.082-3.79 3.498 4 3.499 4-3.711-3.408c-2.041-1.875-3.472-3.797-3.179-4.271.293-.474-6.175-7.94-14.374-16.591-16.783-17.71-29.698-31.941-42.572-46.913C59.032 17.789 53.053 14.8 45.287 18.63m82.463 120.032c.688.278 1.813.278 2.5 0 .688-.277.125-.504-1.25-.504s-1.937.227-1.25.504" fill="#111" fill-rule="evenodd"/></svg>