<svg xmlns="http://www.w3.org/2000/svg" xmlns:xlink="http://www.w3.org/1999/xlink" id="Layer_1" x="0px" y="0px" viewBox="0 0 239.4 218.7" style="enable-background:new 0 0 239.4 218.7;" xml:space="preserve">
<style type="text/css">
	.st0{fill:url(#XMLID_44_);}
	.st1{fill:#555555;}
</style>
<linearGradient id="XMLID_44_" gradientUnits="userSpaceOnUse" x1="11.6378" y1="113.1737" x2="229.4869" y2="113.1737">
	<stop offset="0" style="stop-color:#128FCB"/>
	<stop offset="1" style="stop-color:#02DE7D"/>
</linearGradient>
<path id="XMLID_2_" class="st0" d="M136.9,90.1c0,0,27.8-49.7,47-48.1c19.3,1.7,37.6,72.8,44.3,123.9c3.4,30.5,0,49.4-17.3,33.2  s-58.2-76.3-86-75.6c-27.8,0.8-57.5,32.6-84.9,68.5c-7.8,8.8-34.2,40.6-27.4-19.3S29,69.8,32,55.9C35.1,42,46.2-1,69.6,27.8  S165,130.4,175.9,137.4c34.9,22.8,48.9,5.8,31.1-37.2C193.9,68.6,170.9,60.1,136.9,90.1z"/>

</svg>